<svg width="135" height="44" viewBox="0 0 135 44" fill="none" xmlns="http://www.w3.org/2000/svg">
<path d="M24.44 10.164C24.44 11.652 24.032 12.984 23.216 14.16C22.4 15.312 21.284 16.272 19.868 17.04C20.78 17.664 21.5 18.432 22.028 19.344C22.58 20.232 22.856 21.216 22.856 22.296C22.856 23.592 22.46 24.876 21.668 26.148C20.9 27.396 19.868 28.512 18.572 29.496C17.276 30.456 15.8 31.236 14.144 31.836C12.488 32.436 10.796 32.736 9.068 32.736C7.196 32.736 5.552 32.376 4.136 31.656C2.744 30.96 1.652 29.964 0.86 28.668C1.1 27.948 1.412 27.06 1.796 26.004C2.204 24.924 2.648 23.796 3.128 22.62C3.608 21.42 4.088 20.232 4.568 19.056C5.072 17.88 5.54 16.824 5.972 15.888C6.884 13.848 7.7 12.156 8.42 10.812C9.14 9.468 9.8 8.4 10.4 7.608C9.08 8.016 7.88 8.484 6.8 9.012C5.72 9.516 4.928 10.008 4.424 10.488C4.208 10.344 3.98 10.128 3.74 9.84C3.524 9.552 3.308 9.24 3.092 8.904C2.9 8.544 2.732 8.184 2.588 7.824C2.468 7.464 2.396 7.14 2.372 6.852C2.996 6.42 3.8 6.012 4.784 5.628C5.792 5.22 6.884 4.872 8.06 4.584C9.236 4.296 10.436 4.068 11.66 3.9C12.908 3.732 14.096 3.648 15.224 3.648C18.104 3.648 20.36 4.224 21.992 5.376C23.624 6.528 24.44 8.124 24.44 10.164ZM10.724 18.768C10.268 18.552 9.848 18.228 9.464 17.796C8.912 19.02 8.384 20.22 7.88 21.396C7.4 22.572 6.968 23.664 6.584 24.672C6.2 25.68 5.888 26.556 5.648 27.3C5.408 28.044 5.276 28.584 5.252 28.92C5.588 29.112 5.984 29.256 6.44 29.352C6.92 29.448 7.508 29.496 8.204 29.496C9.836 29.496 11.396 29.268 12.884 28.812C14.372 28.356 15.68 27.744 16.808 26.976C17.936 26.184 18.836 25.284 19.508 24.276C20.18 23.268 20.516 22.212 20.516 21.108C20.516 19.524 19.832 18.384 18.464 17.688C16.592 18.456 14.48 18.84 12.128 18.84C11.792 18.84 11.528 18.84 11.336 18.84C11.168 18.84 10.964 18.816 10.724 18.768ZM17.708 6.276C17.204 6.276 16.664 6.312 16.088 6.384C15.536 6.432 14.948 6.516 14.324 6.636C14.42 6.732 14.492 6.84 14.54 6.96C14.612 7.056 14.672 7.164 14.72 7.284C14.504 7.572 14.24 7.992 13.928 8.544C13.616 9.096 13.268 9.744 12.884 10.488C12.5 11.208 12.092 12.012 11.66 12.9C11.252 13.788 10.832 14.7 10.4 15.636C10.808 15.54 11.3 15.468 11.876 15.42C12.476 15.348 13.064 15.312 13.64 15.312C13.952 15.312 14.252 15.324 14.54 15.348C14.852 15.372 15.152 15.408 15.44 15.456C16.592 15.264 17.624 14.988 18.536 14.628C19.472 14.244 20.276 13.812 20.948 13.332C21.62 12.828 22.136 12.276 22.496 11.676C22.856 11.076 23.036 10.44 23.036 9.768C23.036 8.616 22.58 7.752 21.668 7.176C20.756 6.576 19.436 6.276 17.708 6.276ZM24.9794 27.696C24.9794 26.64 25.2314 25.164 25.7354 23.268C26.2394 21.348 26.9474 19.116 27.8594 16.572C29.3474 12.516 30.7394 9.144 32.0354 6.456C33.3554 3.744 34.6394 1.632 35.8874 0.119998C36.1754 0.167998 36.5234 0.287998 36.9314 0.479998C37.3634 0.671999 37.7834 0.887999 38.1914 1.128C38.5994 1.344 38.9594 1.572 39.2714 1.812C39.6074 2.052 39.8234 2.244 39.9194 2.388C38.0474 4.596 36.4034 6.972 34.9874 9.516C33.5714 12.06 32.2754 14.976 31.0994 18.264C30.0914 21.096 29.3234 23.652 28.7954 25.932C28.2674 28.188 28.0034 30.072 28.0034 31.584C28.0034 31.992 28.0034 32.244 28.0034 32.34C28.0034 32.436 28.0154 32.532 28.0394 32.628C27.7034 32.58 27.4154 32.496 27.1754 32.376C26.9354 32.256 26.7794 32.112 26.7074 31.944C26.6594 31.824 26.5274 31.644 26.3114 31.404C26.0954 31.188 25.9034 31.02 25.7354 30.9C25.5194 30.756 25.3394 30.384 25.1954 29.784C25.0514 29.16 24.9794 28.464 24.9794 27.696ZM37.6306 31.26C36.2626 31.116 35.1706 30.516 34.3546 29.46C33.5386 28.404 33.1306 27.06 33.1306 25.428C33.1306 24.468 33.2746 23.472 33.5626 22.44C33.8506 21.408 34.2586 20.412 34.7866 19.452C35.3146 18.468 35.9386 17.544 36.6586 16.68C37.3786 15.816 38.1586 15.072 38.9986 14.448C40.3186 13.464 41.5546 12.972 42.7066 12.972C43.4746 13.38 44.2306 14.232 44.9746 15.528C45.0946 15.528 45.2026 15.528 45.2986 15.528C45.3946 15.504 45.5026 15.492 45.6226 15.492C46.8946 15.492 47.5306 16.62 47.5306 18.876C47.5306 20.388 47.2786 21.828 46.7746 23.196C46.2946 24.54 45.6106 25.764 44.7226 26.868C43.8586 27.972 42.8146 28.908 41.5906 29.676C40.3906 30.42 39.0706 30.948 37.6306 31.26ZM39.4666 19.92C39.0586 20.472 38.6746 21.072 38.3146 21.72C37.9546 22.368 37.6426 23.028 37.3786 23.7C37.1146 24.348 36.9106 24.984 36.7666 25.608C36.6226 26.208 36.5506 26.748 36.5506 27.228C36.5506 27.804 36.6466 28.356 36.8386 28.884C37.0306 29.412 37.2466 29.712 37.4866 29.784C38.5666 29.544 39.5506 29.1 40.4386 28.452C41.3506 27.78 42.1306 26.952 42.7786 25.968C43.4506 24.984 43.9666 23.868 44.3266 22.62C44.7106 21.372 44.9026 20.04 44.9026 18.624C44.9026 18 44.8666 17.508 44.7946 17.148C44.7226 16.788 44.6026 16.476 44.4346 16.212C43.3786 16.524 42.4306 17.028 41.5906 17.724C40.7746 18.42 40.0666 19.152 39.4666 19.92ZM42.0012 40.728C42.0012 40.584 42.0492 40.452 42.1452 40.332C42.2412 40.212 42.3492 40.092 42.4692 39.972C42.7572 40.236 43.0092 40.44 43.2252 40.584C43.4172 40.728 43.6092 40.848 43.8012 40.944C43.9692 41.04 44.1492 41.1 44.3412 41.124C44.5332 41.148 44.7612 41.16 45.0252 41.16C46.2733 41.16 47.4613 40.824 48.5893 40.152C49.7173 39.504 50.7733 38.556 51.7573 37.308C52.7653 36.06 53.6773 34.536 54.4933 32.736C55.3093 30.936 56.0293 28.896 56.6533 26.616C56.3653 26.904 56.0053 27.228 55.5733 27.588C55.1653 27.924 54.7333 28.248 54.2773 28.56C53.8213 28.872 53.3653 29.16 52.9093 29.424C52.4773 29.688 52.1053 29.88 51.7933 30C51.3853 29.928 51.0013 29.76 50.6413 29.496C50.3053 29.208 50.0053 28.86 49.7413 28.452C49.4773 28.044 49.2733 27.588 49.1293 27.084C48.9853 26.556 48.9133 26.004 48.9133 25.428C48.9133 24.492 49.0813 23.532 49.4173 22.548C49.7773 21.564 50.2453 20.604 50.8213 19.668C51.3973 18.708 52.0693 17.808 52.8373 16.968C53.6293 16.128 54.4573 15.396 55.3213 14.772C56.2093 14.148 57.0973 13.656 57.9853 13.296C58.8973 12.912 59.7853 12.72 60.6493 12.72C61.4893 12.72 62.1133 12.9 62.5213 13.26C62.9533 13.596 63.2653 14.184 63.4573 15.024C63.1933 14.88 62.8573 14.808 62.4493 14.808C61.8733 14.808 61.2013 15.036 60.4333 15.492C59.6893 15.948 58.9213 16.548 58.1293 17.292C57.3613 18.012 56.5933 18.852 55.8253 19.812C55.0573 20.748 54.3733 21.708 53.7733 22.692C53.1973 23.676 52.7173 24.636 52.3333 25.572C51.9733 26.508 51.7933 27.348 51.7933 28.092C51.7933 28.26 51.8053 28.368 51.8293 28.416C51.8533 28.44 51.8893 28.452 51.9373 28.452C52.1533 28.452 52.4413 28.332 52.8013 28.092C53.1853 27.852 53.6053 27.552 54.0613 27.192C54.5413 26.808 55.0333 26.376 55.5373 25.896C56.0413 25.392 56.5213 24.888 56.9773 24.384C58.0093 23.232 58.9453 21.948 59.7853 20.532C60.6493 19.092 61.3333 17.7 61.8373 16.356C62.4853 16.404 63.0613 16.512 63.5653 16.68C64.0693 16.848 64.4173 17.028 64.6093 17.22C63.7933 19.092 63.1333 20.664 62.6293 21.936C62.1493 23.208 61.7293 24.336 61.3693 25.32C60.7213 27.048 60.1093 28.62 59.5333 30.036C58.9813 31.476 58.4053 32.796 57.8053 33.996C57.2293 35.22 56.5933 36.348 55.8973 37.38C55.2253 38.436 54.4573 39.444 53.5933 40.404C53.1853 40.86 52.7173 41.256 52.1893 41.592C51.6853 41.952 51.1573 42.252 50.6053 42.492C50.0773 42.732 49.5493 42.912 49.0213 43.032C48.5173 43.152 48.0493 43.212 47.6173 43.212C47.0413 43.212 46.4533 43.14 45.8533 42.996C45.2532 42.876 44.7012 42.696 44.1972 42.456C43.6692 42.24 43.2132 41.976 42.8292 41.664C42.4452 41.376 42.1692 41.064 42.0012 40.728ZM88.6629 10.164C88.6629 11.316 88.3989 12.408 87.8709 13.44C87.3669 14.448 86.6589 15.36 85.7469 16.176C84.8349 16.968 83.7669 17.64 82.5429 18.192C81.3189 18.744 79.9869 19.116 78.5469 19.308C78.9069 20.388 79.3389 21.504 79.8429 22.656C80.3709 23.784 80.9349 24.876 81.5349 25.932C82.1349 26.988 82.7589 27.96 83.4069 28.848C84.0549 29.736 84.6909 30.468 85.3149 31.044C85.1949 31.284 85.0149 31.524 84.7749 31.764C84.5589 32.004 84.2949 32.22 83.9829 32.412C83.6949 32.628 83.3829 32.796 83.0469 32.916C82.7349 33.06 82.4349 33.132 82.1469 33.132C81.6189 33.132 81.1149 32.88 80.6349 32.376C80.1549 31.872 79.6629 31.08 79.1589 30C78.6789 28.896 78.1629 27.48 77.6109 25.752C77.0829 24 76.4949 21.9 75.8469 19.452C75.5829 19.452 75.3189 19.452 75.0549 19.452C74.7909 19.452 74.5869 19.428 74.4429 19.38C74.2749 19.284 74.0949 19.116 73.9029 18.876C73.2549 20.268 72.6789 21.576 72.1749 22.8C71.6709 24.024 71.2149 25.212 70.8069 26.364C70.4229 27.492 70.0749 28.596 69.7629 29.676C69.4749 30.732 69.2229 31.812 69.0069 32.916C68.1909 32.724 67.4829 32.376 66.8829 31.872C66.2829 31.368 65.7189 30.66 65.1909 29.748C65.2869 29.532 65.3829 29.328 65.4789 29.136C65.5989 28.92 65.7429 28.632 65.9109 28.272C66.0789 27.888 66.2829 27.408 66.5229 26.832C66.7869 26.256 67.1229 25.488 67.5309 24.528C67.9629 23.568 68.4669 22.392 69.0429 21C69.6429 19.608 70.3629 17.916 71.2029 15.924C71.5869 15.036 71.9109 14.256 72.1749 13.584C72.4629 12.912 72.7149 12.276 72.9309 11.676C73.1469 11.052 73.3389 10.44 73.5069 9.84C73.6989 9.216 73.8909 8.508 74.0829 7.716C72.9789 8.1 71.9469 8.532 70.9869 9.012C70.0509 9.468 69.2709 9.96 68.6469 10.488C68.4309 10.344 68.2029 10.128 67.9629 9.84C67.7469 9.552 67.5429 9.24 67.3509 8.904C67.1589 8.544 66.9909 8.184 66.8469 7.824C66.7029 7.464 66.6189 7.14 66.5949 6.852C67.3149 6.372 68.1909 5.928 69.2229 5.52C70.2789 5.112 71.3949 4.764 72.5709 4.476C73.7469 4.164 74.9469 3.924 76.1709 3.756C77.3949 3.588 78.5349 3.504 79.5909 3.504C82.4709 3.504 84.7029 4.104 86.2869 5.304C87.8709 6.48 88.6629 8.1 88.6629 10.164ZM79.8789 7.14C79.7109 7.356 79.4469 7.788 79.0869 8.436C78.7269 9.084 78.3069 9.864 77.8269 10.776C77.3709 11.664 76.8789 12.636 76.3509 13.692C75.8469 14.748 75.3549 15.792 74.8749 16.824C76.6749 16.824 78.3309 16.656 79.8429 16.32C81.3549 15.984 82.6629 15.516 83.7669 14.916C84.8709 14.292 85.7229 13.572 86.3229 12.756C86.9469 11.916 87.2589 10.992 87.2589 9.984C87.2589 8.784 86.8269 7.872 85.9629 7.248C85.0989 6.6 83.7669 6.276 81.9669 6.276C81.5589 6.276 81.1509 6.3 80.7429 6.348C80.3349 6.372 79.9029 6.408 79.4469 6.456L79.8789 7.14ZM91.6306 31.26C90.2626 31.116 89.1706 30.516 88.3546 29.46C87.5386 28.404 87.1306 27.06 87.1306 25.428C87.1306 24.468 87.2746 23.472 87.5626 22.44C87.8506 21.408 88.2586 20.412 88.7866 19.452C89.3146 18.468 89.9386 17.544 90.6586 16.68C91.3786 15.816 92.1586 15.072 92.9986 14.448C94.3186 13.464 95.5546 12.972 96.7066 12.972C97.4746 13.38 98.2306 14.232 98.9746 15.528C99.0946 15.528 99.2026 15.528 99.2986 15.528C99.3946 15.504 99.5026 15.492 99.6226 15.492C100.895 15.492 101.531 16.62 101.531 18.876C101.531 20.388 101.279 21.828 100.775 23.196C100.295 24.54 99.6106 25.764 98.7226 26.868C97.8586 27.972 96.8146 28.908 95.5906 29.676C94.3906 30.42 93.0706 30.948 91.6306 31.26ZM93.4666 19.92C93.0586 20.472 92.6746 21.072 92.3146 21.72C91.9546 22.368 91.6426 23.028 91.3786 23.7C91.1146 24.348 90.9106 24.984 90.7666 25.608C90.6226 26.208 90.5506 26.748 90.5506 27.228C90.5506 27.804 90.6466 28.356 90.8386 28.884C91.0306 29.412 91.2466 29.712 91.4866 29.784C92.5666 29.544 93.5506 29.1 94.4386 28.452C95.3506 27.78 96.1306 26.952 96.7786 25.968C97.4506 24.984 97.9666 23.868 98.3266 22.62C98.7106 21.372 98.9026 20.04 98.9026 18.624C98.9026 18 98.8666 17.508 98.7946 17.148C98.7226 16.788 98.6026 16.476 98.4346 16.212C97.3786 16.524 96.4306 17.028 95.5906 17.724C94.7746 18.42 94.0666 19.152 93.4666 19.92ZM103.489 23.664C103.489 22.296 103.765 20.976 104.317 19.704C104.893 18.408 105.637 17.268 106.549 16.284C107.485 15.276 108.541 14.472 109.717 13.872C110.917 13.248 112.153 12.936 113.425 12.936C114.673 12.936 115.633 13.248 116.305 13.872C116.977 14.496 117.313 15.384 117.313 16.536C117.313 17.088 117.229 17.628 117.061 18.156C116.917 18.66 116.713 19.116 116.449 19.524C116.209 19.932 115.921 20.268 115.585 20.532C115.249 20.772 114.913 20.892 114.577 20.892C114.289 20.892 113.989 20.808 113.677 20.64C113.389 20.448 113.149 20.208 112.957 19.92C114.565 18.456 115.369 17.124 115.369 15.924C115.369 15.228 115.093 14.88 114.541 14.88C114.061 14.88 113.461 15.108 112.741 15.564C112.021 16.02 111.325 16.62 110.653 17.364C109.621 18.516 108.829 19.8 108.277 21.216C107.749 22.608 107.485 24.072 107.485 25.608C107.485 27.552 107.917 28.716 108.781 29.1C109.141 29.052 109.561 28.944 110.041 28.776C110.521 28.608 111.037 28.392 111.589 28.128C112.141 27.84 112.705 27.516 113.281 27.156C113.881 26.796 114.457 26.412 115.009 26.004C115.105 26.076 115.189 26.184 115.261 26.328C115.333 26.472 115.369 26.604 115.369 26.724C114.961 27.228 114.493 27.72 113.965 28.2C113.437 28.68 112.885 29.124 112.309 29.532C111.733 29.916 111.169 30.24 110.617 30.504C110.089 30.792 109.621 30.972 109.213 31.044C108.421 30.972 107.677 30.72 106.981 30.288C106.285 29.88 105.673 29.34 105.145 28.668C104.641 27.996 104.233 27.228 103.921 26.364C103.633 25.5 103.489 24.6 103.489 23.664ZM118.462 26.616C118.462 25.752 118.678 24.552 119.11 23.016C119.566 21.48 120.154 19.8 120.874 17.976C121.594 16.152 122.41 14.268 123.322 12.324C124.234 10.38 125.146 8.568 126.058 6.888C126.994 5.208 127.882 3.756 128.722 2.532C129.586 1.308 130.318 0.48 130.918 0.0479994C131.254 0.0719991 131.614 0.215999 131.998 0.479998C132.406 0.743999 132.778 1.068 133.114 1.452C133.45 1.812 133.726 2.196 133.942 2.604C134.182 3.012 134.302 3.384 134.302 3.72C133.222 4.584 132.118 5.7 130.99 7.068C129.886 8.412 128.83 9.9 127.822 11.532C126.814 13.14 125.878 14.856 125.014 16.68C124.174 18.48 123.466 20.256 122.89 22.008C123.658 20.688 124.462 19.488 125.302 18.408C126.142 17.328 126.982 16.404 127.822 15.636C128.662 14.868 129.478 14.28 130.27 13.872C131.086 13.44 131.854 13.212 132.574 13.188C133.63 13.956 134.158 14.976 134.158 16.248C134.158 17.016 134.002 17.796 133.69 18.588C133.378 19.356 132.958 20.076 132.43 20.748C131.926 21.396 131.338 21.96 130.666 22.44C130.018 22.896 129.334 23.196 128.614 23.34C128.854 24.18 129.154 25.032 129.514 25.896C129.898 26.76 130.342 27.6 130.846 28.416C131.374 29.232 131.962 29.988 132.61 30.684C133.282 31.38 134.038 31.968 134.878 32.448C134.758 32.688 134.578 32.928 134.338 33.168C134.098 33.408 133.81 33.612 133.474 33.78C133.138 33.972 132.766 34.116 132.358 34.212C131.974 34.332 131.59 34.392 131.206 34.392C130.558 34.392 129.946 34.068 129.37 33.42C128.818 32.772 128.314 31.836 127.858 30.612C127.498 29.628 127.15 28.452 126.814 27.084C126.478 25.716 126.178 24.288 125.914 22.8C126.25 22.584 126.67 22.272 127.174 21.864C127.678 21.432 128.206 20.94 128.758 20.388C130.87 18.348 131.926 16.584 131.926 15.096C131.926 14.904 131.794 14.808 131.53 14.808C131.05 14.832 130.486 15.06 129.838 15.492C129.19 15.924 128.494 16.524 127.75 17.292C127.03 18.06 126.286 18.96 125.518 19.992C124.774 21.024 124.054 22.14 123.358 23.34C123.07 23.82 122.806 24.372 122.566 24.996C122.326 25.62 122.11 26.268 121.918 26.94C121.75 27.588 121.618 28.236 121.522 28.884C121.426 29.532 121.378 30.132 121.378 30.684C121.378 31.02 121.414 31.296 121.486 31.512C120.742 31.44 120.286 31.248 120.118 30.936C119.926 30.648 119.758 30.408 119.614 30.216C119.494 30.048 119.362 29.904 119.218 29.784C119.002 29.616 118.822 29.256 118.678 28.704C118.534 28.152 118.462 27.456 118.462 26.616Z" fill="#161B3D"/>
</svg>
