<svg width="19" height="20" viewBox="0 0 19 20" fill="none" xmlns="http://www.w3.org/2000/svg">
<path d="M11.6562 0.65625C7.6947 0.65625 4.46875 3.8822 4.46875 7.84375C4.46875 9.56482 5.07239 11.1427 6.08594 12.3809L0.358398 18.1084L1.3916 19.1416L7.11914 13.4141C8.3573 14.4276 9.93518 15.0312 11.6562 15.0312C15.6178 15.0312 18.8438 11.8053 18.8438 7.84375C18.8438 3.8822 15.6178 0.65625 11.6562 0.65625ZM11.6562 2.09375C14.8401 2.09375 17.4062 4.65991 17.4062 7.84375C17.4062 11.0276 14.8401 13.5938 11.6562 13.5938C8.47241 13.5938 5.90625 11.0276 5.90625 7.84375C5.90625 4.65991 8.47241 2.09375 11.6562 2.09375Z" fill="black"/>
</svg>
